<svg version="1.1" id="Layer_1" xmlns="http://www.w3.org/2000/svg" xmlns:xlink="http://www.w3.org/1999/xlink" x="0px" y="0px"
	 width="100%" viewBox="0 0 528 528" enable-background="new 0 0 528 528" xml:space="preserve">
<path fill="#000000" opacity="1.000000" stroke="none" 
	d="
M335.850342,454.060669 
	C310.017548,461.969574 283.997467,464.998322 257.536285,462.220612 
	C216.850006,457.949585 180.581024,442.785248 149.448364,416.090942 
	C117.930206,389.066101 96.726112,355.402588 86.563560,315.086670 
	C81.288857,294.161377 79.739540,272.917603 81.465172,251.260574 
	C84.793381,209.490814 100.193810,172.831619 126.981529,140.995575 
	C151.265533,112.135117 181.667160,92.089699 217.689133,80.610565 
	C243.779434,72.296371 270.526123,69.153519 297.568420,72.734749 
	C374.501984,82.923111 428.541321,123.949829 459.133087,195.345749 
	C472.099060,225.606110 475.952942,257.739929 471.416931,289.865051 
	C459.871643,371.631927 413.776001,426.013184 335.850342,454.060669 
M152.551758,121.064278 
	C108.047188,159.800415 85.318367,208.791992 84.601677,267.661957 
	C84.295273,292.830414 88.907082,317.437805 99.297928,340.515411 
	C130.644913,410.135773 184.379959,449.923431 260.262756,458.386780 
	C289.188812,461.613007 317.678040,457.157196 345.082031,446.636414 
	C425.836914,415.633484 477.326202,334.052277 467.775543,246.823547 
	C464.260345,214.718231 454.048218,184.985153 435.040649,158.917786 
	C389.720306,96.764542 328.587372,68.917160 251.812302,77.287338 
	C214.527832,81.352165 181.871918,96.761803 152.551758,121.064278 
z"/>
<path fill="#000000" opacity="1.000000" stroke="none" 
	d="
M357.000061,149.712402 
	C365.496948,149.711945 373.498749,149.878601 381.488708,149.643707 
	C385.675018,149.520615 387.074036,151.210266 387.024353,155.209473 
	C386.883575,166.536667 386.884583,177.867294 386.992493,189.195023 
	C387.028809,193.005386 385.651184,194.483002 381.700470,194.411530 
	C370.375244,194.206650 359.041687,194.467468 347.716248,194.268265 
	C343.722931,194.198013 341.995026,195.319489 342.130402,199.589813 
	C342.388947,207.745255 342.321075,215.916321 342.171112,224.076920 
	C342.108154,227.502853 343.308685,228.940903 346.811310,228.744293 
	C350.465088,228.539215 354.151398,228.889816 357.802277,228.660248 
	C372.073120,227.762985 386.218170,230.358292 400.462372,230.079117 
	C403.240387,230.024673 405.395325,230.676605 405.249023,234.233398 
	C405.095551,237.963669 402.415283,237.302795 400.209625,237.305893 
	C369.888123,237.348389 339.566559,237.360825 309.245026,237.358810 
	C258.264862,237.355408 207.284683,237.336456 156.304504,237.323868 
	C155.471497,237.323669 154.638153,237.336166 153.805542,237.317032 
	C151.460983,237.263184 148.948380,237.553345 148.900726,233.985901 
	C148.851349,230.288467 151.407349,230.168106 153.996475,230.127274 
	C157.994019,230.064194 161.993057,230.098602 165.991440,230.084167 
	C172.712296,230.059921 172.744507,230.057480 172.749573,223.492630 
	C172.766769,201.167969 172.754715,178.843323 172.763626,156.518661 
	C172.766312,149.792389 172.821823,149.728622 179.348282,149.719330 
	C190.510605,149.703461 201.675262,149.848831 212.834076,149.651077 
	C216.998383,149.577271 218.330460,151.131302 218.304901,155.203140 
	C218.166916,177.193665 218.234146,199.185455 218.230698,221.176819 
	C218.230331,223.495743 218.230652,225.814667 218.662750,228.208328 
	C221.710419,223.397522 222.266525,217.832657 223.526138,212.548080 
	C228.111694,193.310013 232.433517,174.009201 236.942245,154.752533 
	C237.442123,152.617584 237.575180,149.807556 240.857162,149.801270 
	C254.816162,149.774506 268.775238,149.789902 284.161285,149.789902 
	C277.654480,176.730804 271.330750,202.913712 264.812073,229.903778 
	C274.720490,229.903778 283.944366,230.040497 293.160248,229.829041 
	C296.351501,229.755829 295.695801,226.821579 295.700928,224.782211 
	C295.748230,205.956314 295.734833,187.130249 295.740112,168.304245 
	C295.741333,163.972595 295.985931,159.624146 295.683655,155.313919 
	C295.367920,150.811523 297.286407,149.609009 301.523438,149.646988 
	C319.847687,149.811279 338.174286,149.714569 357.000061,149.712402 
z"/>
<path fill="#000000" opacity="1.000000" stroke="none" 
	d="
M285.316132,357.845673 
	C286.589447,363.225128 287.813934,368.194031 288.975494,372.907623 
	C287.050903,374.805389 285.123077,374.288055 283.369537,374.295166 
	C271.538452,374.343170 259.702240,374.121918 247.878250,374.414246 
	C243.272278,374.528107 241.537933,372.819977 240.593582,368.445038 
	C236.138657,347.806549 231.380493,327.233307 226.666443,306.651428 
	C226.214081,304.676361 226.382004,302.027283 223.448593,301.671204 
	C219.798065,301.228149 218.193863,302.455017 218.239151,306.635162 
	C218.461182,327.129150 218.213669,347.628204 218.428940,368.122314 
	C218.478516,372.841553 217.179138,374.564606 212.265350,374.415222 
	C201.443939,374.086334 190.605560,374.324585 179.774139,374.313141 
	C172.778000,374.305756 172.769577,374.291290 172.766769,367.489838 
	C172.758621,347.826599 172.766647,328.163391 172.749344,308.500153 
	C172.743576,301.954529 172.701904,301.985626 165.982620,301.868927 
	C161.487595,301.790863 156.995834,301.539368 152.501343,301.409180 
	C150.405518,301.348511 148.963593,300.726868 148.934357,298.273315 
	C148.903534,295.687683 150.219559,294.677948 152.643097,294.719788 
	C153.808945,294.739929 154.975693,294.700897 156.142044,294.700897 
	C236.627991,294.700104 317.113953,294.700562 397.599884,294.701141 
	C398.433075,294.701141 399.266266,294.701111 400.099426,294.705963 
	C402.651947,294.720825 405.251434,294.499481 405.262970,298.330811 
	C405.274902,302.297729 402.438110,301.864044 400.029694,301.841125 
	C382.704926,301.676117 365.368408,302.453278 348.058563,301.429565 
	C343.444092,301.156677 342.049774,302.684082 342.101288,307.317810 
	C342.327301,327.645050 342.100098,347.977020 342.269257,368.305359 
	C342.306000,372.720673 341.150208,374.544067 336.378845,374.420258 
	C324.722046,374.117706 313.048889,374.160126 301.389160,374.398560 
	C296.928345,374.489807 295.654846,372.808960 295.687531,368.546631 
	C295.843445,348.218079 295.626495,327.886200 295.854126,307.558990 
	C295.904449,303.065796 294.659271,300.899719 290.074066,301.536987 
	C284.174561,302.356964 278.183838,300.521027 271.554108,302.133026 
	C276.168427,320.741547 280.717865,339.088348 285.316132,357.845673 
z"/>
<path fill="#000000" opacity="1.000000" stroke="none" 
	d="
M224.844482,248.416473 
	C225.455353,244.937363 227.818954,244.933701 230.250107,245.268204 
	C232.625839,245.595078 232.944778,247.457901 232.948517,249.385010 
	C232.965622,258.211945 232.987946,267.039215 232.923584,275.865723 
	C232.907532,278.067078 232.729385,280.284271 229.567154,280.355652 
	C226.974335,280.414185 225.012283,280.005249 224.497299,276.923615 
	C224.016647,274.047455 223.202332,271.227081 222.338455,267.544861 
	C222.338455,271.084656 222.276215,273.750244 222.355988,276.411560 
	C222.435730,279.072449 221.440796,280.369263 218.583755,280.349335 
	C215.757095,280.329651 214.754532,279.056152 214.769577,276.391510 
	C214.817551,267.897705 214.739136,259.403046 214.808975,250.909531 
	C214.826965,248.721985 214.055206,245.927155 217.463608,245.347778 
	C220.261078,244.872253 222.873428,244.989655 223.791382,248.454544 
	C223.831375,248.605530 223.957840,248.746277 224.073669,248.862137 
	C224.417999,249.206604 224.664948,249.136032 224.844482,248.416473 
z"/>
<path fill="#000000" opacity="1.000000" stroke="none" 
	d="
M365.309357,246.688812 
	C369.652863,244.018631 373.950714,244.891434 378.106628,245.970551 
	C380.955353,246.710220 382.216980,249.204178 382.559631,252.038986 
	C383.380585,258.831085 383.532074,265.679199 382.670593,272.434235 
	C381.798401,279.273926 372.311371,283.389404 366.264282,279.958069 
	C364.830170,279.144287 364.811035,277.808594 364.819855,276.507172 
	C364.886169,266.699249 365.001160,256.891632 365.309357,246.688812 
M374.794769,264.384247 
	C374.507477,260.823914 375.472076,257.125458 373.596466,252.448318 
	C373.596466,259.642853 373.596466,265.538635 373.596466,272.520721 
	C375.301697,269.491760 374.558929,267.338440 374.794769,264.384247 
z"/>
<path fill="#000000" opacity="1.000000" stroke="none" 
	d="
M188.792923,275.224304 
	C189.069366,276.889679 189.213120,278.181549 189.351273,279.423187 
	C182.795959,281.253387 182.795959,281.253387 179.480240,271.198181 
	C179.348099,273.838226 179.259109,275.519745 179.180756,277.201721 
	C179.035431,280.321777 176.836548,280.282867 174.561966,280.308655 
	C172.138367,280.336090 171.412216,279.031036 171.392303,276.863281 
	C171.311401,268.058258 171.133041,259.253815 171.109543,250.448868 
	C171.103546,248.204956 170.816101,245.503677 174.240051,245.217621 
	C177.209915,244.969498 179.465042,245.783768 179.481125,250.915802 
	C181.503723,244.823273 184.472992,244.200806 189.178299,246.454773 
	C185.454910,255.852966 184.995316,265.372803 188.792923,275.224304 
z"/>
<path fill="#000000" opacity="1.000000" stroke="none" 
	d="
M312.375427,277.447021 
	C308.676880,268.407227 309.667023,259.417542 311.175446,250.590210 
	C311.971313,245.932709 316.178009,244.694305 320.553192,245.057556 
	C324.978058,245.424927 327.841797,248.053238 328.076843,252.360413 
	C328.448181,259.164490 328.694183,266.058258 328.012939,272.815247 
	C327.218903,280.690582 319.395172,282.981323 312.375427,277.447021 
M320.409454,271.025208 
	C320.409454,265.144623 320.409454,259.264038 320.409454,253.383438 
	C319.817902,253.400864 319.226349,253.418274 318.634796,253.435699 
	C317.938629,259.273315 318.161621,265.154419 318.526367,271.030945 
	C318.569427,271.724579 319.297089,272.027405 320.409454,271.025208 
z"/>
<path fill="#000000" opacity="1.000000" stroke="none" 
	d="
M346.116333,280.671936 
	C340.323517,279.997040 337.922607,276.536469 337.743896,271.488770 
	C337.532379,265.514984 337.543365,259.523224 337.736145,253.548233 
	C337.914215,248.029327 341.358154,244.886261 346.639618,244.963776 
	C351.885529,245.040802 355.117432,248.228821 355.269348,253.830490 
	C355.422455,259.475708 355.403564,265.129517 355.301636,270.776703 
	C355.188293,277.057373 352.899841,279.538208 346.116333,280.671936 
M347.194702,262.044678 
	C347.031311,259.269196 346.867950,256.493713 346.704559,253.718231 
	C346.385254,253.758820 346.065979,253.799408 345.746704,253.839996 
	C345.746704,259.679840 345.746704,265.519684 345.746704,271.359528 
	C347.562500,268.671295 347.734253,265.823517 347.194702,262.044678 
z"/>
<path fill="#000000" opacity="1.000000" stroke="none" 
	d="
M252.175690,266.613678 
	C250.747986,264.295929 250.049225,262.008789 251.964722,260.375458 
	C253.659592,258.930237 256.163147,259.462738 258.234131,259.902893 
	C261.022461,260.495514 260.186310,263.020721 260.238892,264.868042 
	C260.352509,268.860382 260.287262,272.858521 260.254761,276.854004 
	C260.235565,279.209625 259.545410,281.061951 256.717072,279.714996 
	C255.235214,279.009247 254.224640,279.686676 252.967880,280.033051 
	C247.293747,281.596558 243.085648,278.981873 242.806213,273.209717 
	C242.468597,266.235138 242.457870,259.216492 242.830017,252.244904 
	C243.111877,246.964142 247.811081,244.087891 253.351807,245.148926 
	C257.851562,246.010635 261.225647,251.406418 260.109985,255.823959 
	C259.713989,257.391815 258.689240,258.053650 257.258514,258.107178 
	C255.622971,258.168396 253.859619,258.348663 252.924667,256.456451 
	C252.436722,255.468903 253.070740,254.031937 250.592758,252.867874 
	C250.006775,259.549805 250.078964,265.716675 250.534958,272.846252 
	C253.308121,270.519165 252.601242,268.695557 252.175690,266.613678 
z"/>
<path fill="#000000" opacity="1.000000" stroke="none" 
	d="
M286.723206,264.996399 
	C286.726532,259.675903 286.866150,254.849564 286.687500,250.035004 
	C286.562775,246.673111 287.848236,245.038177 291.243683,245.096634 
	C293.403595,245.133820 295.566132,245.046448 297.725037,245.104660 
	C299.738312,245.158951 301.323914,245.767395 301.310486,248.242691 
	C301.298584,250.432053 301.602448,252.695343 298.502838,253.156448 
	C297.280457,253.338287 295.620544,253.175125 295.574219,255.127548 
	C295.526947,257.119751 296.887573,257.615601 298.538269,257.693298 
	C300.776642,257.798706 301.168396,259.285797 301.206879,261.122131 
	C301.244659,262.926544 300.948975,264.771484 298.847931,264.860748 
	C294.113861,265.061981 294.300354,268.208038 294.417053,271.508087 
	C294.481598,273.333405 294.342957,275.165131 294.375580,276.992554 
	C294.423126,279.656219 292.925629,280.349762 290.560120,280.334595 
	C288.206451,280.319489 286.718231,279.635742 286.747192,276.966461 
	C286.788696,273.143372 286.736053,269.319275 286.723206,264.996399 
z"/>
<path fill="#000000" opacity="1.000000" stroke="none" 
	d="
M205.308044,269.966064 
	C205.293976,272.447815 205.216949,274.438049 205.282059,276.423584 
	C205.369476,279.089050 204.293442,280.346558 201.492050,280.346375 
	C198.728378,280.346222 197.636108,279.179718 197.652664,276.474243 
	C197.708420,267.361938 197.715607,258.248718 197.638931,249.136734 
	C197.616653,246.488953 198.517593,245.051727 201.337296,245.135559 
	C203.945679,245.213104 205.295380,246.365601 205.281952,249.093552 
	C205.248520,255.886322 205.294373,262.679474 205.308044,269.966064 
z"/>
</svg>